<?xml version="1.0" encoding="UTF-8" standalone="no"?>
<!DOCTYPE svg PUBLIC "-//W3C//DTD SVG 1.1//EN" "http://www.w3.org/Graphics/SVG/1.1/DTD/svg11.dtd">
<svg width="100%" height="100%" viewBox="0 0 953 185" version="1.1" xmlns="http://www.w3.org/2000/svg" xmlns:xlink="http://www.w3.org/1999/xlink" xml:space="preserve" xmlns:serif="http://www.serif.com/" style="fill-rule:evenodd;clip-rule:evenodd;stroke-linejoin:round;stroke-miterlimit:2;">
    <g transform="matrix(4.561452,0,0,4.561452,-258.375826,-205.114811)">
        <g id="path2" transform="matrix(1,0,0,1,29.322192,-945.429942)">
            <path d="M73.097,995.965C64.226,999.633 59.96,997.571 56.115,994.983L51.739,1010.165C55.58,1012.767 60.217,1014.906 68.728,1011.096L73.097,995.965Z" style="fill:rgb(145,195,0);fill-rule:nonzero;"/>
        </g>
        <g id="path4" transform="matrix(1,0,0,1,29.322192,-945.429942)">
            <path d="M44.256,1026.484C40.403,1023.89 36.214,1021.757 27.321,1025.434L31.676,1010.225C40.57,1006.547 44.843,1008.628 48.693,1011.237L44.256,1026.483L44.256,1026.484Z" style="fill:rgb(0,180,241);fill-rule:nonzero;"/>
        </g>
        <g id="path6" transform="matrix(1,0,0,1,29.322192,-945.429942)">
            <path d="M49.432,1008.492C47.112,1006.93 44.617,1005.471 41.074,1005.445C38.736,1005.427 35.953,1006.091 32.421,1007.551L36.799,992.381C45.687,988.706 49.957,990.786 53.804,993.393L49.432,1008.492Z" style="fill:rgb(248,104,44);fill-rule:nonzero;"/>
        </g>
        <g id="path8" transform="matrix(1,0,0,1,29.322192,-945.429942)">
            <path d="M51.001,1012.701C54.849,1015.292 59.124,1017.356 68.005,1013.685L63.627,1028.805C54.745,1032.479 50.479,1030.398 46.634,1027.791L51.001,1012.701Z" style="fill:rgb(255,195,0);fill-rule:nonzero;"/>
        </g>
    </g>
    <g id="g3600" transform="matrix(2.257244,0,0,2.220668,219.072685,-16.866623)">
        <path id="path5" d="M58.974,62.532C58.442,64.524 58.129,66.114 58.037,67.298L57.897,67.298C57.711,65.627 57.433,64.086 57.063,62.672L46.524,24.137L40.891,24.137L29.831,62.393C29.229,64.503 28.882,66.171 28.789,67.403L28.649,67.403C28.511,65.639 28.222,63.971 27.78,62.393L17.172,24.137L10.772,24.137L25.345,74.011L32.127,74.011L42.457,37.458C42.92,35.858 43.233,34.2 43.394,32.483L43.534,32.483C43.604,34.27 43.86,35.95 44.299,37.526L54.56,74.013L61.411,74.013L75.497,24.138L69.167,24.138L58.974,62.532ZM79.36,74.011L85.063,74.011L85.063,38.396L79.36,38.396L79.36,74.011ZM82.281,21.944C81.261,21.944 80.386,22.299 79.656,23.006C78.925,23.713 78.56,24.589 78.56,25.632C78.56,26.721 78.926,27.615 79.656,28.309C80.386,29.006 81.261,29.353 82.281,29.353C83.326,29.353 84.21,28.993 84.942,28.275C85.673,27.554 86.038,26.674 86.038,25.63C86.038,24.587 85.672,23.712 84.942,23.004C84.21,22.299 83.326,21.944 82.281,21.944ZM111.149,37.526C106.023,37.526 102.128,39.787 99.462,44.309L99.324,44.309L99.324,38.395L93.62,38.395L93.62,74.01L99.324,74.01L99.324,53.698C99.324,50.428 100.257,47.727 102.124,45.594C103.99,43.461 106.348,42.393 109.202,42.393C114.721,42.393 117.478,46.162 117.478,53.698L117.478,74.011L123.184,74.011L123.184,52.203C123.184,47.518 122.158,43.903 120.104,41.352C118.051,38.802 115.067,37.526 111.149,37.526ZM155.565,43.299L155.427,43.299C153.177,39.448 149.617,37.525 144.748,37.525C139.81,37.525 135.857,39.298 132.89,42.849C129.922,46.394 128.437,51.136 128.437,57.072C128.437,62.636 129.827,67.019 132.61,70.218C135.276,73.323 138.799,74.879 143.182,74.879C148.701,74.879 152.783,72.571 155.424,67.956L155.564,67.956L155.564,74.011L161.267,74.011L161.267,21.285L155.564,21.285L155.565,43.299ZM155.565,57.907C155.565,61.338 154.614,64.188 152.715,66.463C150.696,68.827 148.064,70.011 144.819,70.011C141.76,70.011 139.278,68.919 137.377,66.741C135.313,64.375 134.28,61.049 134.28,56.761C134.28,52.261 135.278,48.741 137.274,46.203C139.268,43.664 142.003,42.393 145.481,42.393C148.425,42.393 150.86,43.414 152.785,45.455C154.639,47.401 155.566,49.804 155.566,52.653L155.565,57.907ZM185.693,37.526C180.29,37.526 175.98,39.102 172.756,42.255C169.277,45.64 167.54,50.429 167.54,56.62C167.54,62.045 169.068,66.417 172.13,69.731C175.262,73.163 179.504,74.877 184.859,74.877C190.283,74.877 194.597,73.161 197.796,69.731C200.999,66.297 202.597,61.742 202.597,56.063C202.597,50.288 201.107,45.753 198.128,42.463C195.148,39.172 191.001,37.526 185.693,37.526ZM193.868,66.358C191.895,68.792 189.032,70.01 185.275,70.01C181.659,70.01 178.772,68.809 176.618,66.409C174.461,64.01 173.382,60.676 173.382,56.408C173.382,51.863 174.508,48.351 176.756,45.87C178.891,43.553 181.729,42.392 185.276,42.392C188.871,42.392 191.666,43.538 193.659,45.835C195.723,48.224 196.754,51.701 196.754,56.269C196.753,60.631 195.792,63.993 193.868,66.358ZM240.4,65.245C240.078,66.474 239.891,67.54 239.842,68.444L239.566,68.444C239.475,67.168 239.311,66.102 239.08,65.245L231.673,38.393L226.455,38.393L218.281,65.106C217.911,66.29 217.69,67.377 217.622,68.375L217.342,68.375C217.25,67.168 217.087,66.103 216.855,65.173L209.517,38.394L203.534,38.394L214.283,74.011L219.987,74.011L227.951,48.447C228.369,47.124 228.613,46.058 228.681,45.246L228.821,45.246C228.936,46.498 229.121,47.589 229.376,48.516L236.717,74.01L242.629,74.01L253.307,38.395L247.67,38.395L240.4,65.245ZM267.432,54.013C264.721,52.853 262.934,51.867 262.077,51.056C261.126,50.173 260.649,48.945 260.649,47.368C260.649,45.909 261.217,44.716 262.352,43.787C263.491,42.859 265.004,42.396 266.91,42.396C269.949,42.396 272.636,43.242 274.975,44.935L274.975,39.197C272.729,38.084 270.19,37.527 267.36,37.527C263.673,37.527 260.66,38.508 258.319,40.465C255.977,42.425 254.803,44.888 254.803,47.857C254.803,50.502 255.557,52.646 257.065,54.292C258.319,55.684 260.44,57.027 263.43,58.326C266.329,59.601 268.276,60.689 269.274,61.596C270.268,62.5 270.768,63.649 270.768,65.041C270.768,68.354 268.507,70.014 263.985,70.014C260.6,70.014 257.518,68.877 254.733,66.606L254.733,72.727C257.237,74.164 260.184,74.883 263.567,74.883C267.698,74.883 270.956,73.839 273.341,71.753C275.522,69.826 276.61,67.404 276.61,64.482C276.61,61.837 275.74,59.661 274.003,57.945C272.657,56.597 270.467,55.286 267.432,54.013Z" style="fill:white;fill-rule:nonzero;"/>
        <path id="polygon789" d="M292.838,26.595L320.314,26.595L299.931,74.772L303.23,74.772L325,23.292L292.838,23.292L292.838,26.595Z" style="fill:white;fill-rule:nonzero;"/>
    </g>
</svg>
