<?xml version="1.0" encoding="UTF-8" standalone="no"?>
<!DOCTYPE svg PUBLIC "-//W3C//DTD SVG 1.1//EN" "http://www.w3.org/Graphics/SVG/1.1/DTD/svg11.dtd">
<svg width="100%" height="100%" viewBox="0 0 933 183" version="1.1" xmlns="http://www.w3.org/2000/svg" xmlns:xlink="http://www.w3.org/1999/xlink" xml:space="preserve" xmlns:serif="http://www.serif.com/" style="fill-rule:evenodd;clip-rule:evenodd;stroke-linejoin:round;stroke-miterlimit:2;">
    <g transform="matrix(0.83027,0,0,0.83027,0,0)">
        <g transform="matrix(7.7611,0,0,7.7611,0,0)">
            <path d="M12.725,13.664L28.249,13.664L28.249,0L12.725,2.168L12.725,13.664Z" style="fill:rgb(0,174,239);fill-rule:nonzero;"/>
        </g>
        <g transform="matrix(7.7611,0,0,7.7611,0,0)">
            <path d="M11.838,13.664L11.838,2.293L0,3.946L0,13.664L11.838,13.664Z" style="fill:rgb(0,174,239);fill-rule:nonzero;"/>
        </g>
        <g transform="matrix(7.7611,0,0,7.7611,0,0)">
            <path d="M11.838,14.551L0,14.551L0,24.305L11.838,25.957L11.838,14.551Z" style="fill:rgb(0,174,239);fill-rule:nonzero;"/>
        </g>
        <g transform="matrix(7.7611,0,0,7.7611,0,0)">
            <path d="M12.725,14.551L12.725,26.081L28.249,28.247L28.249,14.551L12.725,14.551Z" style="fill:rgb(0,174,239);fill-rule:nonzero;"/>
        </g>
        <g transform="matrix(7.7611,0,0,7.7611,0,0)">
            <g>
                <path d="M58.705,5.66L53.921,22.603L51.593,22.603L48.107,10.21C47.973,9.744 47.886,9.173 47.847,8.495L47.8,8.495C47.737,9.078 47.631,9.643 47.481,10.185L43.971,22.603L41.667,22.603L36.717,5.66L38.89,5.66L42.494,18.658C42.644,19.233 42.742,19.8 42.79,20.359L42.837,20.359C42.876,19.878 42.994,19.311 43.191,18.658L46.949,5.66L48.863,5.66L52.443,18.752C52.577,19.241 52.671,19.764 52.727,20.323L52.774,20.323C52.813,19.913 52.92,19.374 53.093,18.705L56.555,5.66L58.705,5.66Z" style="fill:rgb(0,174,239);fill-rule:nonzero;"/>
                <path d="M62.221,22.603L60.283,22.603L60.283,10.504L62.221,10.504L62.221,22.603ZM62.552,6.524C62.552,6.886 62.426,7.188 62.174,7.428C61.921,7.668 61.622,7.788 61.275,7.788C60.921,7.788 60.621,7.671 60.377,7.44C60.134,7.208 60.011,6.902 60.011,6.524C60.011,6.185 60.132,5.892 60.372,5.644C60.612,5.396 60.914,5.272 61.275,5.272C61.637,5.272 61.94,5.394 62.186,5.638C62.429,5.882 62.552,6.177 62.552,6.524" style="fill:rgb(0,174,239);fill-rule:nonzero;"/>
                <path d="M75.197,22.603L73.26,22.603L73.26,15.704C73.26,13.143 72.323,11.863 70.448,11.863C69.495,11.863 68.697,12.223 68.054,12.944C67.413,13.665 67.092,14.585 67.092,15.704L67.092,22.603L65.155,22.603L65.155,10.504L67.092,10.504L67.092,12.513L67.139,12.513C68.045,10.978 69.369,10.21 71.109,10.21C72.44,10.21 73.455,10.643 74.152,11.509C74.848,12.375 75.197,13.604 75.197,15.195L75.197,22.603Z" style="fill:rgb(0,174,239);fill-rule:nonzero;"/>
                <path d="M86.707,17.134L86.707,15.349C86.707,14.349 86.374,13.518 85.708,12.855C85.043,12.194 84.233,11.863 83.28,11.863C82.115,11.863 81.189,12.295 80.504,13.158C79.818,14.02 79.476,15.215 79.476,16.743C79.476,18.13 79.799,19.227 80.444,20.035C81.091,20.842 81.961,21.246 83.057,21.246C84.118,21.246 84.994,20.859 85.679,20.087C86.364,19.315 86.707,18.33 86.707,17.134M88.646,22.603L86.708,22.603L86.708,20.548L86.66,20.548C85.763,22.115 84.376,22.899 82.502,22.899C80.974,22.899 79.756,22.35 78.851,21.251C77.945,20.152 77.491,18.685 77.491,16.85C77.491,14.848 77.994,13.242 78.998,12.029C80.002,10.816 81.347,10.21 83.033,10.21C84.687,10.21 85.896,10.863 86.66,12.17L86.708,12.17L86.708,4.691L88.646,4.691L88.646,22.603Z" style="fill:rgb(0,174,239);fill-rule:nonzero;"/>
                <path d="M100.97,16.578C100.97,15.059 100.634,13.893 99.962,13.081C99.288,12.27 98.324,11.863 97.072,11.863C95.828,11.863 94.843,12.279 94.119,13.111C93.394,13.942 93.031,15.112 93.031,16.626C93.031,18.075 93.395,19.208 94.124,20.023C94.853,20.838 95.836,21.246 97.072,21.246C98.333,21.246 99.297,20.844 99.967,20.04C100.636,19.237 100.97,18.083 100.97,16.578M102.957,16.507C102.957,18.429 102.411,19.975 101.32,21.146C100.229,22.315 98.766,22.9 96.93,22.9C95.142,22.9 93.714,22.331 92.648,21.193C91.579,20.055 91.046,18.557 91.046,16.697C91.046,14.696 91.592,13.114 92.689,11.953C93.783,10.791 95.292,10.21 97.215,10.21C99.011,10.21 100.416,10.772 101.433,11.893C102.448,13.017 102.957,14.553 102.957,16.507" style="fill:rgb(0,174,239);fill-rule:nonzero;"/>
                <path d="M120.59,10.504L116.964,22.603L114.955,22.603L112.462,13.944C112.375,13.645 112.312,13.273 112.272,12.832L112.225,12.832C112.202,13.108 112.119,13.471 111.977,13.921L109.271,22.603L107.333,22.603L103.681,10.504L105.714,10.504L108.207,19.602C108.287,19.919 108.341,20.281 108.373,20.691L108.468,20.691C108.483,20.391 108.559,20.021 108.692,19.579L111.469,10.504L113.241,10.504L115.758,19.627C115.836,19.934 115.892,20.296 115.923,20.714L116.018,20.714C116.034,20.335 116.097,19.974 116.207,19.627L118.677,10.504L120.59,10.504Z" style="fill:rgb(0,174,239);fill-rule:nonzero;"/>
                <path d="M128.85,19.367C128.85,20.415 128.446,21.265 127.639,21.919C126.832,22.573 125.759,22.899 124.419,22.899C123.277,22.899 122.277,22.656 121.417,22.167L121.417,20.087C122.372,20.859 123.419,21.246 124.562,21.246C126.097,21.246 126.865,20.683 126.865,19.556C126.865,19.099 126.716,18.727 126.416,18.44C126.116,18.151 125.434,17.764 124.372,17.275C123.3,16.818 122.545,16.329 122.104,15.805C121.662,15.281 121.442,14.586 121.442,13.719C121.442,12.719 121.843,11.883 122.646,11.214C123.45,10.544 124.471,10.21 125.706,10.21C126.66,10.21 127.522,10.399 128.295,10.777L128.295,12.726C127.507,12.152 126.593,11.863 125.553,11.863C124.915,11.863 124.402,12.021 124.012,12.337C123.622,12.652 123.427,13.058 123.427,13.554C123.427,14.089 123.576,14.501 123.875,14.788C124.174,15.076 124.794,15.416 125.731,15.81C126.881,16.299 127.688,16.811 128.153,17.347C128.617,17.882 128.85,18.557 128.85,19.367" style="fill:rgb(0,174,239);fill-rule:nonzero;"/>
            </g>
        </g>
        <path d="M1039.7,140.44C1039.7,137.023 1040.239,133.607 1041.318,130.19C1042.397,126.713 1043.926,123.477 1045.904,120.48C1047.942,117.483 1050.429,114.755 1053.366,112.298C1056.363,109.84 1059.75,107.892 1063.526,106.454C1057.952,103.337 1053.516,99.351 1050.219,94.496C1046.923,89.581 1045.274,84.156 1045.274,78.222C1045.274,73.486 1046.173,69.111 1047.972,65.095C1049.83,61.079 1052.377,57.602 1055.614,54.665C1058.851,51.728 1062.687,49.45 1067.122,47.832C1071.558,46.153 1076.353,45.314 1081.508,45.314C1086.723,45.314 1091.548,46.153 1095.984,47.832C1100.42,49.51 1104.256,51.818 1107.492,54.755C1110.729,57.692 1113.246,61.168 1115.045,65.185C1116.843,69.201 1117.742,73.546 1117.742,78.222C1117.742,84.156 1116.093,89.581 1112.797,94.496C1109.5,99.351 1105.124,103.337 1099.67,106.454C1103.386,107.892 1106.713,109.84 1109.65,112.298C1112.587,114.755 1115.044,117.483 1117.022,120.48C1119.06,123.477 1120.619,126.713 1121.698,130.19C1122.777,133.606 1123.316,137.023 1123.316,140.44C1123.316,146.074 1122.297,151.229 1120.259,155.905C1118.221,160.58 1115.344,164.596 1111.628,167.953C1107.971,171.25 1103.566,173.827 1098.411,175.685C1093.316,177.543 1087.682,178.472 1081.508,178.472C1075.394,178.472 1069.79,177.543 1064.695,175.685C1059.6,173.827 1055.194,171.25 1051.478,167.953C1047.761,164.596 1044.854,160.58 1042.756,155.905C1040.718,151.23 1039.7,146.075 1039.7,140.44L1039.7,140.44ZM1055.704,139.181C1055.704,143.197 1056.303,146.824 1057.502,150.06C1058.761,153.297 1060.499,156.054 1062.717,158.332C1064.995,160.61 1067.722,162.378 1070.899,163.637C1074.135,164.835 1077.702,165.435 1081.598,165.435C1085.374,165.435 1088.85,164.806 1092.028,163.547C1095.205,162.288 1097.932,160.52 1100.21,158.242C1102.547,155.964 1104.345,153.207 1105.604,149.97C1106.923,146.734 1107.582,143.137 1107.582,139.181C1107.582,135.585 1106.953,132.228 1105.694,129.111C1104.495,125.935 1102.757,123.147 1100.479,120.75C1098.202,118.352 1095.474,116.464 1092.297,115.085C1089.121,113.707 1085.554,113.018 1081.598,113.018C1077.882,113.018 1074.436,113.677 1071.258,114.996C1068.142,116.254 1065.414,118.052 1063.077,120.39C1060.799,122.668 1059.001,125.425 1057.682,128.662C1056.363,131.839 1055.704,135.345 1055.704,139.181L1055.704,139.181ZM1060.289,79.391C1060.289,82.448 1060.829,85.295 1061.908,87.933C1063.047,90.51 1064.575,92.788 1066.493,94.766C1068.471,96.684 1070.749,98.213 1073.326,99.351C1075.904,100.43 1078.661,100.97 1081.598,100.97C1084.535,100.97 1087.292,100.4 1089.87,99.261C1092.507,98.123 1094.785,96.594 1096.703,94.676C1098.621,92.698 1100.149,90.42 1101.288,87.843C1102.427,85.205 1102.997,82.388 1102.997,79.391C1102.997,76.274 1102.427,73.397 1101.288,70.76C1100.209,68.123 1098.711,65.845 1096.793,63.927C1094.875,62.009 1092.597,60.51 1089.96,59.431C1087.382,58.292 1084.595,57.723 1081.598,57.723C1078.421,57.723 1075.514,58.292 1072.877,59.431C1070.299,60.57 1068.052,62.129 1066.133,64.107C1064.275,66.025 1062.837,68.302 1061.818,70.94C1060.799,73.577 1060.289,76.394 1060.289,79.391Z" style="fill:rgb(0,174,239);fill-rule:nonzero;"/>
    </g>
</svg>
