<?xml version="1.0" encoding="UTF-8"?>
<svg width="1e3" height="183" version="1.1" xml:space="preserve" xmlns="http://www.w3.org/2000/svg" xmlns:xlink="http://www.w3.org/1999/xlink"><defs><rect id="SVGID_1_" x="-28.8" y="-590.95" width="648" height="648"/></defs><style type="text/css">
	.st0{fill:#00AEEF;}
	.st1{clip-path:url(#SVGID_00000101088247595068130490000013499332376332135045_);fill:#00AEEF;}
</style><g transform="scale(.83027)"><polygon class="st0" transform="scale(7.7611)" points="12.725 13.664 28.249 13.664 28.249 0 12.725 2.168"/><polygon class="st0" transform="scale(7.7611)" points="11.838 13.664 11.838 2.293 0 3.946 0 13.664"/><polygon class="st0" transform="scale(7.7611)" points="11.838 14.551 0 14.551 0 24.305 11.838 25.957"/><polygon class="st0" transform="scale(7.7611)" points="12.725 14.551 12.725 26.081 28.249 28.247 28.249 14.551"/><g transform="scale(7.7611)">
	
	<clipPath id="SVGID_00000083807496007332358210000006278467277428740267_">
		<use xlink:href="#SVGID_1_"/>
	</clipPath><g fill="#00aeef">
	<path d="m58.705 5.66-4.784 16.943h-2.328l-3.486-12.393c-0.134-0.466-0.221-1.037-0.26-1.715h-0.047c-0.063 0.583-0.169 1.148-0.319 1.69l-3.51 12.418h-2.304l-4.95-16.943h2.173l3.604 12.998c0.15 0.575 0.248 1.142 0.296 1.701h0.047c0.039-0.481 0.157-1.048 0.354-1.701l3.758-12.998h1.914l3.58 13.092c0.134 0.489 0.228 1.012 0.284 1.571h0.047c0.039-0.41 0.146-0.949 0.319-1.618l3.462-13.045z" clip-path="url(#SVGID_00000083807496007332358210000006278467277428740267_)"/>
	<path d="m62.221 22.603h-1.938v-12.099h1.938zm0.331-16.079c0 0.362-0.126 0.664-0.378 0.904-0.253 0.24-0.552 0.36-0.899 0.36-0.354 0-0.654-0.117-0.898-0.348-0.243-0.232-0.366-0.538-0.366-0.916 0-0.339 0.121-0.632 0.361-0.88s0.542-0.372 0.903-0.372c0.362 0 0.665 0.122 0.911 0.366 0.243 0.244 0.366 0.539 0.366 0.886" clip-path="url(#SVGID_00000083807496007332358210000006278467277428740267_)"/>
	<path d="m75.197 22.603h-1.937v-6.899c0-2.561-0.937-3.841-2.812-3.841-0.953 0-1.751 0.36-2.394 1.081-0.641 0.721-0.962 1.641-0.962 2.76v6.899h-1.937v-12.099h1.937v2.009h0.047c0.906-1.535 2.23-2.303 3.97-2.303 1.331 0 2.346 0.433 3.043 1.299 0.696 0.866 1.045 2.095 1.045 3.686z" clip-path="url(#SVGID_00000083807496007332358210000006278467277428740267_)"/>
	<path d="m86.707 17.134v-1.785c0-1-0.333-1.831-0.999-2.494-0.665-0.661-1.475-0.992-2.428-0.992-1.165 0-2.091 0.432-2.776 1.295-0.686 0.862-1.028 2.057-1.028 3.585 0 1.387 0.323 2.484 0.968 3.292 0.647 0.807 1.517 1.211 2.613 1.211 1.061 0 1.937-0.387 2.622-1.159s1.028-1.757 1.028-2.953m1.939 5.469h-1.938v-2.055h-0.048c-0.897 1.567-2.284 2.351-4.158 2.351-1.528 0-2.746-0.549-3.651-1.648-0.906-1.099-1.36-2.566-1.36-4.401 0-2.002 0.503-3.608 1.507-4.821s2.349-1.819 4.035-1.819c1.654 0 2.863 0.653 3.627 1.96h0.048v-7.479h1.938z" clip-path="url(#SVGID_00000083807496007332358210000006278467277428740267_)"/>
	<path d="m100.97 16.578c0-1.519-0.336-2.685-1.008-3.497-0.674-0.811-1.638-1.218-2.89-1.218-1.244 0-2.229 0.416-2.953 1.248-0.725 0.831-1.088 2.001-1.088 3.515 0 1.449 0.364 2.582 1.093 3.397s1.712 1.223 2.948 1.223c1.261 0 2.225-0.402 2.895-1.206 0.669-0.803 1.003-1.957 1.003-3.462m1.987-0.071c0 1.922-0.546 3.468-1.637 4.639-1.091 1.169-2.554 1.754-4.39 1.754-1.788 0-3.216-0.569-4.282-1.707-1.069-1.138-1.602-2.636-1.602-4.496 0-2.001 0.546-3.583 1.643-4.744 1.094-1.162 2.603-1.743 4.526-1.743 1.796 0 3.201 0.562 4.218 1.683 1.015 1.124 1.524 2.66 1.524 4.614" clip-path="url(#SVGID_00000083807496007332358210000006278467277428740267_)"/>
	<path d="m120.59 10.504-3.626 12.099h-2.009l-2.493-8.659c-0.087-0.299-0.15-0.671-0.19-1.112h-0.047c-0.023 0.276-0.106 0.639-0.248 1.089l-2.706 8.682h-1.938l-3.652-12.099h2.033l2.493 9.098c0.08 0.317 0.134 0.679 0.166 1.089h0.095c0.015-0.3 0.091-0.67 0.224-1.112l2.777-9.075h1.772l2.517 9.123c0.078 0.307 0.134 0.669 0.165 1.087h0.095c0.016-0.379 0.079-0.74 0.189-1.087l2.47-9.123z" clip-path="url(#SVGID_00000083807496007332358210000006278467277428740267_)"/>
	<path d="m128.85 19.367c0 1.048-0.404 1.898-1.211 2.552s-1.88 0.98-3.22 0.98c-1.142 0-2.142-0.243-3.002-0.732v-2.08c0.955 0.772 2.002 1.159 3.145 1.159 1.535 0 2.303-0.563 2.303-1.69 0-0.457-0.149-0.829-0.449-1.116-0.3-0.289-0.982-0.676-2.044-1.165-1.072-0.457-1.827-0.946-2.268-1.47-0.442-0.524-0.662-1.219-0.662-2.086 0-1 0.401-1.836 1.204-2.505 0.804-0.67 1.825-1.004 3.06-1.004 0.954 0 1.816 0.189 2.589 0.567v1.949c-0.788-0.574-1.702-0.863-2.742-0.863-0.638 0-1.151 0.158-1.541 0.474-0.39 0.315-0.585 0.721-0.585 1.217 0 0.535 0.149 0.947 0.448 1.234 0.299 0.288 0.919 0.628 1.856 1.022 1.15 0.489 1.957 1.001 2.422 1.537 0.464 0.535 0.697 1.21 0.697 2.02" clip-path="url(#SVGID_00000083807496007332358210000006278467277428740267_)"/>
</g></g><g fill="#00aeef"><path d="m1039.7 140.44c0-3.4166 0.5394-6.8332 1.6184-10.25 1.0789-3.4765 2.6073-6.7133 4.5854-9.7103 2.0379-2.997 4.5254-5.7242 7.4625-8.1818 2.997-2.4576 6.3836-4.4056 10.16-5.8442-5.5744-3.1169-10.01-7.1029-13.307-11.958-3.2967-4.9151-4.945-10.34-4.945-16.274 0-4.7353 0.8991-9.1109 2.6973-13.127 1.8581-4.016 4.4056-7.4925 7.6424-10.43 3.2367-2.9371 7.0728-5.2148 11.508-6.8332 4.4356-1.6783 9.2308-2.5175 14.386-2.5175 5.2148 0 10.04 0.83917 14.476 2.5175 4.4356 1.6783 8.2718 3.986 11.508 6.9231 3.2368 2.9371 5.7543 6.4136 7.5525 10.43 1.7982 4.016 2.6973 8.3616 2.6973 13.037 0 5.9341-1.6484 11.359-4.9451 16.274-3.2967 4.8552-7.6723 8.8412-13.127 11.958 3.7162 1.4386 7.0429 3.3866 9.98 5.8442 2.937 2.4576 5.3946 5.1848 7.3726 8.1818 2.0379 2.997 3.5964 6.2338 4.6753 9.7103 1.0789 3.4166 1.6184 6.8332 1.6184 10.25 0 5.6344-1.019 10.789-3.0569 15.465-2.038 4.6753-4.9151 8.6913-8.6314 12.048-3.6563 3.2967-8.062 5.8741-13.217 7.7323-5.0949 1.8581-10.729 2.7872-16.903 2.7872-6.1139 0-11.718-0.92909-16.813-2.7872-5.0949-1.8581-9.5005-4.4356-13.217-7.7323-3.7163-3.3566-6.6234-7.3726-8.7213-12.048-2.038-4.6753-3.0569-9.8302-3.0569-15.465zm16.004-1.2587c0 4.016 0.5994 7.6423 1.7982 10.879 1.2587 3.2368 2.997 5.994 5.2147 8.2717 2.2778 2.2777 5.005 4.0459 8.1818 5.3047 3.2368 1.1988 6.8032 1.7982 10.699 1.7982 3.7762 0 7.2527-0.62938 10.43-1.8881s5.9041-3.027 8.1818-5.3047c2.3377-2.2777 4.1359-5.035 5.3946-8.2717 1.3187-3.2368 1.978-6.8332 1.978-10.789 0-3.5964-0.6293-6.9531-1.8881-10.07-1.1988-3.1768-2.937-5.964-5.2147-8.3616-2.2778-2.3976-5.0051-4.2857-8.1819-5.6644-3.1768-1.3786-6.7432-2.0679-10.699-2.0679-3.7163 0-7.1629 0.65935-10.34 1.978-3.1169 1.2587-5.8442 3.0569-8.1818 5.3946-2.2777 2.2777-4.0759 5.035-5.3946 8.2717-1.3187 3.1768-1.978 6.6833-1.978 10.519zm4.5854-59.79c0 3.0569 0.5394 5.9041 1.6183 8.5414 1.1389 2.5774 2.6674 4.8552 4.5855 6.8332 1.978 1.9181 4.2557 3.4466 6.8331 4.5854 2.5774 1.0789 5.3347 1.6184 8.2718 1.6184 2.937 0 5.6942-0.56944 8.2717-1.7083 2.6373-1.1389 4.915-2.6673 6.8331-4.5854 1.9181-1.978 3.4466-4.2558 4.5854-6.8332 1.1389-2.6374 1.7083-5.4545 1.7083-8.4515 0-3.1169-0.5694-5.994-1.7083-8.6314-1.0789-2.6374-2.5774-4.9151-4.4955-6.8332-1.9181-1.9181-4.1958-3.4166-6.8331-4.4955-2.5774-1.1389-5.3646-1.7083-8.3616-1.7083-3.1769 0-6.084 0.56944-8.7213 1.7083-2.5775 1.1389-4.8252 2.6973-6.7433 4.6753-1.8581 1.9181-3.2967 4.1958-4.3157 6.8332-1.0189 2.6374-1.5284 5.4546-1.5284 8.4516z"/><path d="m1145.3 178.38c-2.7572 0-5.1248-0.98903-7.1029-2.9671-1.9181-1.978-2.8771-4.3456-2.8771-7.1029s0.959-5.1249 2.8771-7.1029c1.9781-2.038 4.3457-3.0569 7.1029-3.0569 2.8172 0 5.2148 1.019 7.1928 3.0569 1.978 1.978 2.967 4.3457 2.967 7.1029s-0.989 5.1249-2.967 7.1029c-1.978 1.978-4.3756 2.9671-7.1928 2.9671z"/><path d="m1204.4 176.41h-14.745v-111.4c-1.1388 1.1389-2.8171 2.4576-5.0349 3.9561-2.1579 1.4386-4.6154 2.8771-7.3726 4.3157-2.6973 1.4386-5.5744 2.7872-8.6314 4.046-2.997 1.2587-5.934 2.2478-8.8112 2.967v-14.925c3.2368-0.89911 6.6534-2.0979 10.25-3.5964 3.6563-1.5584 7.2227-3.2667 10.699-5.1249 3.5364-1.9181 6.8631-3.8961 9.98-5.9341 3.1169-2.0979 5.8142-4.1359 8.0919-6.1139h5.5744z"/></g></g></svg>
